0
SECTION
2
HEADER
9
$INSUNITS
70
4
9
$ACADVER
1
AC1014
9
$HANDSEED
5
FFFF
0
ENDSEC
0
SECTION
2
TABLES
0
TABLE
2
VPORT
5
8
100
AcDbSymbolTable
0
ENDTAB
0
TABLE
2
LTYPE
5
5
100
AcDbSymbolTable
0
LTYPE
5
14
100
AcDbSymbolTableRecord
100
AcDbLinetypeTableRecord
2
BYBLOCK
70
0
0
LTYPE
5
15
100
AcDbSymbolTableRecord
100
AcDbLinetypeTableRecord
2
BYLAYER
70
0
0
LTYPE
5
16
100
AcDbSymbolTableRecord
100
AcDbLinetypeTableRecord
2
DASHED
70
0
3
Dashed __ __ __ __ __ __ __ __ __ __ __ __ __ _
72
65
73
2
40
0.75
49
0.5
74
0
49
-0.25
74
0
0
ENDTAB
0
TABLE
2
LAYER
5
2
100
AcDbSymbolTable
70
2
0
LAYER
5
50
100
AcDbSymbolTableRecord
100
AcDbLayerTableRecord
2
0
70
0
62
7
6
CONTINUOUS
0
ENDTAB
0
TABLE
2
STYLE
5
3
100
AcDbSymbolTable
70
1
0
STYLE
5
11
100
AcDbSymbolTableRecord
100
AcDbTextStyleTableRecord
2
STANDARD
70
0
0
ENDTAB
0
TABLE
2
VIEW
5
6
100
AcDbSymbolTable
70
0
0
ENDTAB
0
TABLE
2
UCS
5
7
100
AcDbSymbolTable
70
0
0
ENDTAB
0
TABLE
2
APPID
5
9
100
AcDbSymbolTable
70
2
0
APPID
5
12
100
AcDbSymbolTableRecord
100
AcDbRegAppTableRecord
2
ACAD
70
0
0
ENDTAB
0
TABLE
2
DIMSTYLE
5
A
100
AcDbSymbolTable
70
1
0
ENDTAB
0
TABLE
2
BLOCK_RECORD
5
1
100
AcDbSymbolTable
70
1
0
BLOCK_RECORD
5
1F
100
AcDbSymbolTableRecord
100
AcDbBlockTableRecord
2
*MODEL_SPACE
0
BLOCK_RECORD
5
1B
100
AcDbSymbolTableRecord
100
AcDbBlockTableRecord
2
*PAPER_SPACE
0
ENDTAB
0
ENDSEC
0
SECTION
2
BLOCKS
0
BLOCK
5
20
100
AcDbEntity
100
AcDbBlockBegin
2
*MODEL_SPACE
0
ENDBLK
5
21
100
AcDbEntity
100
AcDbBlockEnd
0
BLOCK
5
1C
100
AcDbEntity
100
AcDbBlockBegin
2
*PAPER_SPACE
0
ENDBLK
5
1D
100
AcDbEntity
100
AcDbBlockEnd
0
ENDSEC
0
SECTION
2
ENTITIES
0
CIRCLE
5
100
100
AcDbEntity
8
0
100
AcDbCircle
10
43.62667391046422
20
68.410364426978106
30
0
40
1.6500000000000001
210
0
220
0
230
1
0
CIRCLE
5
101
100
AcDbEntity
8
0
100
AcDbCircle
10
28.626673910464223
20
68.410364426978106
30
0
40
1.6500000000000001
210
0
220
0
230
1
0
CIRCLE
5
102
100
AcDbEntity
8
0
100
AcDbCircle
10
155.40667391046446
20
68.410364426977637
30
0
40
1.6500000000000001
210
0
220
0
230
1
0
CIRCLE
5
103
100
AcDbEntity
8
0
100
AcDbCircle
10
170.40667391046446
20
68.410364426977637
30
0
40
1.6500000000000001
210
0
220
0
230
1
0
LINE
5
104
100
AcDbEntity
8
0
100
AcDbLine
10
28.626673910464223
20
79.172618709692685
30
0
11
28.626673910464223
21
55.827383301964069
31
0
6
DASHED
0
LINE
5
105
100
AcDbEntity
8
0
100
AcDbLine
10
43.62667391046422
20
79.1726187096926
30
0
11
43.62667391046422
21
55.827383301963991
31
0
6
DASHED
0
LINE
5
106
100
AcDbEntity
8
0
100
AcDbLine
10
155.40667391046446
20
79.1726187096925
30
0
11
155.40667391046446
21
55.827383301963884
31
0
6
DASHED
0
LINE
5
107
100
AcDbEntity
8
0
100
AcDbLine
10
170.40667391046446
20
79.172618709692543
30
0
11
170.40667391046446
21
55.827383301963927
31
0
6
DASHED
0
LINE
5
108
100
AcDbEntity
8
0
100
AcDbLine
10
207.74505358736695
20
68.410364426977509
30
0
11
1.1996559833610843
21
68.410364426978177
31
0
6
DASHED
0
LWPOLYLINE
5
109
100
AcDbEntity
8
0
100
AcDbPolyline
90
4
70
1
43
0.0
10
187.07170470378284
20
63.860364426977554
10
27.990273910464065
20
63.860364426977554
10
27.990273910464065
20
19.156364426978058
10
187.07170470378284
20
19.156364426978058
0
CIRCLE
5
110
100
AcDbEntity
8
0
100
AcDbCircle
10
184.97170470378282
20
21.256364426978056
30
0
40
2.1000000000000001
210
0
220
0
230
1
0
CIRCLE
5
111
100
AcDbEntity
8
0
100
AcDbCircle
10
30.090273910464063
20
21.256364426978056
30
0
40
2.1000000000000001
210
0
220
0
230
1
0
LINE
5
112
100
AcDbEntity
8
0
100
AcDbLine
10
230.55600787839779
20
21.256364426978067
30
0
11
19.013642490946481
21
21.25636442697806
31
0
6
DASHED
0
LINE
5
113
100
AcDbEntity
8
0
100
AcDbLine
10
30.090273910464063
20
32.015149984036796
30
0
11
30.090273910464049
21
6.472407293324749
31
0
6
DASHED
0
LINE
5
114
100
AcDbEntity
8
0
100
AcDbLine
10
184.97170470378282
20
32.015149984036618
30
0
11
184.97170470378279
21
6.4724072933245758
31
0
6
DASHED
0
CIRCLE
5
115
100
AcDbEntity
8
0
100
AcDbCircle
10
30.090273910464063
20
21.256364426978056
30
0
40
2.1000000000000001
210
0
220
0
230
1
0
CIRCLE
5
116
100
AcDbEntity
8
0
100
AcDbCircle
10
19.176673910464103
20
27.423564426978075
30
0
40
2.1000000000000001
210
0
220
0
230
1
0
CIRCLE
5
117
100
AcDbEntity
8
0
100
AcDbCircle
10
11.076673910464097
20
27.4235644269781
30
0
40
2.1000000000000001
210
0
220
0
230
1
0
CIRCLE
5
118
100
AcDbEntity
8
0
100
AcDbCircle
10
11.076673910464054
20
13.023564426978098
30
0
40
2.1000000000000001
210
0
220
0
230
1
0
CIRCLE
5
119
100
AcDbEntity
8
0
100
AcDbCircle
10
19.176673910464061
20
13.023564426978076
30
0
40
2.1000000000000001
210
0
220
0
230
1
0
LINE
5
120
100
AcDbEntity
8
0
100
AcDbLine
10
4.5338749410045702
20
27.4235644269781
30
0
11
27.214692805728362
21
27.4235644269781
31
0
6
DASHED
0
LINE
5
121
100
AcDbEntity
8
0
100
AcDbLine
10
4.5338749410045329
20
13.023564426978098
30
0
11
27.214692805728326
21
13.023564426978098
31
0
6
DASHED
0
LINE
5
122
100
AcDbEntity
8
0
100
AcDbLine
10
11.076673910464097
20
36.771420549893101
30
0
11
11.076673910464091
21
5.6308668949550498
31
0
6
DASHED
0
LINE
5
123
100
AcDbEntity
8
0
100
AcDbLine
10
19.176673910464103
20
36.771420549893094
30
0
11
19.176673910464096
21
5.6308668949550409
31
0
6
DASHED
0
LWPOLYLINE
5
124
100
AcDbEntity
8
0
100
AcDbPolyline
90
4
70
1
43
0.0
10
9.0413959730483899
20
29.523564426978098
10
21.276673910464051
20
29.523564426978098
10
21.276673910464051
20
10.92356442697807
10
9.0413959730483899
20
10.92356442697807
0
LWPOLYLINE
5
125
100
AcDbEntity
8
0
100
AcDbPolyline
90
4
70
1
43
0.0
10
67.583918415402607
20
9.6041594347283201
10
147.58391841540262
20
9.6041594347283201
10
147.58391841540262
20
-70.395840565271669
10
67.583918415402607
20
-70.395840565271669
0
LWPOLYLINE
5
126
100
AcDbEntity
8
0
100
AcDbPolyline
90
4
70
1
43
0.0
10
7.5413959730483864
20
74.360364426977554
10
212.4836070978389
20
74.360364426977554
10
212.4836070978389
20
-26.639635573022467
10
7.5413959730483864
20
-26.63963557302246
0
LWPOLYLINE
5
127
100
AcDbEntity
8
0
100
AcDbPolyline
90
4
70
1
43
0.0
10
25.990273910464062
20
63.86036442697754
10
189.07170470378281
20
63.86036442697754
10
189.07170470378281
20
17.156364426978058
10
25.990273910464062
20
17.156364426978058
0
ENDSEC
0
SECTION
2
OBJECTS
0
DICTIONARY
5
C
100
AcDbDictionary
3
ACAD_GROUP
350
D
3
ACAD_MLINESTYLE
350
17
0
DICTIONARY
5
D
100
AcDbDictionary
0
DICTIONARY
5
1A
330
C
100
AcDbDictionary
0
DICTIONARY
5
17
100
AcDbDictionary
0
ENDSEC
0
EOF
